<?xml version="1.0" standalone="no"?>
<!DOCTYPE svg PUBLIC "-//W3C//DTD SVG 20010904//EN"
 "http://www.w3.org/TR/2001/REC-SVG-20010904/DTD/svg10.dtd">
<svg version="1.0" xmlns="http://www.w3.org/2000/svg"
 width="1024.000000pt" height="1024.000000pt" viewBox="0 0 1024.000000 1024.000000"
 preserveAspectRatio="xMidYMid meet">
<metadata>
Created by potrace 1.14, written by Peter Selinger 2001-2017
</metadata>
<g transform="translate(0.000000,1024.000000) scale(0.100000,-0.100000)"
fill="#000000" stroke="none">
<path d="M3090 9090 c-1118 -539 -2037 -983 -2041 -987 -4 -4 -101 -415 -214
-913 -114 -498 -292 -1278 -396 -1735 -104 -456 -237 -1039 -296 -1295 -94
-416 -104 -467 -92 -487 8 -13 642 -810 1409 -1773 l1395 -1749 2270 0 2270 0
1395 1749 c767 963 1401 1760 1409 1773 12 20 2 71 -92 487 -59 256 -192 839
-296 1295 -104 457 -282 1237 -396 1735 -113 498 -210 909 -214 913 -7 7
-3969 1918 -4047 1952 -30 14 -66 -3 -2064 -965z m2415 -1764 c372 -66 728
-232 999 -465 78 -66 85 -75 74 -95 -12 -23 -228 -402 -290 -509 l-39 -67 -87
73 c-322 273 -674 398 -1035 366 -133 -11 -203 -30 -307 -81 -160 -78 -298
-249 -346 -428 -23 -86 -23 -246 1 -325 25 -89 51 -133 119 -203 114 -119 208
-169 676 -360 759 -310 1086 -514 1304 -812 161 -218 236 -539 206 -874 -24
-275 -89 -468 -222 -667 -306 -458 -910 -699 -1645 -658 -412 23 -769 145
-1128 383 -177 118 -475 378 -475 414 0 8 392 617 406 631 3 3 46 -36 97 -85
212 -208 343 -312 519 -413 188 -108 325 -160 491 -186 348 -54 638 -3 852
149 177 127 258 297 259 546 0 204 -42 327 -156 457 -152 173 -346 284 -913
523 -508 213 -780 397 -973 658 -114 154 -173 312 -194 523 -49 491 195 988
627 1274 203 135 419 213 675 244 107 14 398 6 505 -13z"/>
</g>
</svg>
